# xmcd CD database file
#
# Track frame offsets:
#	150
#	17863
#	35720
#	53418
#
# Disc length: 803 seconds
#
# Revision: 0
# Processed by: cddbd v1.5PL3 Copyright (c) Steve Scherf et al.
# Submitted via: CDex 1.51
#
DISCID=2a032104
DTITLE=Puffy - SUNRISE
DYEAR=2004
DGENRE=JPop
TTITLE0=SUNRISE
TTITLE1=憂(UREI)
TTITLE2=SUNRISE -Instrumental-
TTITLE3=SUNRISE -TV edit-
EXTD=YEAR: 2004
EXTT0=
EXTT1=
EXTT2=
EXTT3=
PLAYORDER=
